<svg width="20" height="20" viewBox="0 0 20 20" fill="none" xmlns="http://www.w3.org/2000/svg">
<path d="M13.3333 1.66699V5.00033M6.66663 1.66699V5.00033" stroke="white" stroke-width="1.25" stroke-linecap="round" stroke-linejoin="round"/>
<path d="M17.5 10.833V9.99967C17.5 6.85697 17.5 5.28563 16.5237 4.30932C15.5474 3.33301 13.976 3.33301 10.8333 3.33301H9.16667C6.02397 3.33301 4.45262 3.33301 3.47631 4.30932C2.5 5.28563 2.5 6.85697 2.5 9.99967V11.6663C2.5 14.809 2.5 16.3804 3.47631 17.3567C4.45262 18.333 6.02397 18.333 9.16667 18.333" stroke="white" stroke-width="1.25" stroke-linecap="round" stroke-linejoin="round"/>
<path d="M2.5 8.33301H17.5" stroke="white" stroke-width="1.25" stroke-linecap="round" stroke-linejoin="round"/>
<path d="M10.8334 16.2497C10.8334 16.2497 11.9571 16.6719 12.5 18.333C12.5 18.333 15.1471 14.1663 17.5 13.333" stroke="white" stroke-width="1.25" stroke-linecap="round" stroke-linejoin="round"/>
</svg>
