<svg width="26" height="26" viewBox="0 0 26 26" fill="none" xmlns="http://www.w3.org/2000/svg">
<path d="M4.33337 8.6665C4.33337 5.60237 4.33337 4.07031 5.42127 3.11841C6.50915 2.1665 8.26008 2.1665 11.7619 2.1665H14.2382C17.7399 2.1665 19.4909 2.1665 20.5788 3.11841C21.6667 4.07031 21.6667 5.60237 21.6667 8.6665V18.4165H4.33337V8.6665Z" stroke="#262626" stroke-width="1.625" stroke-linejoin="round"/>
<path d="M3.25 18.4165H22.75" stroke="#262626" stroke-width="1.625" stroke-linecap="round"/>
<path d="M11.5903 6.02987C12.923 5.83887 15.1314 5.91527 13.3037 7.74888C11.0192 10.0409 7.59243 15.1981 11.5903 13.4791C15.5882 11.7602 17.3018 12.9061 15.5884 14.6252" stroke="#262626" stroke-width="1.625" stroke-linecap="round" stroke-linejoin="round"/>
<path d="M13 18.4165V22.7498" stroke="#262626" stroke-width="1.625" stroke-linecap="round"/>
<path d="M5.41663 23.8332L8.66663 18.4165" stroke="#262626" stroke-width="1.625" stroke-linecap="round"/>
<path d="M20.5834 23.8332L17.3334 18.4165" stroke="#262626" stroke-width="1.625" stroke-linecap="round"/>
</svg>
