<svg width="34" height="34" viewBox="0 0 34 34" fill="none" xmlns="http://www.w3.org/2000/svg">
<path d="M11.3424 10.8778L21.7133 5.97599C26.0225 3.93925 28.1771 2.92088 29.5515 3.94251C30.9258 4.96412 30.5331 7.29233 29.7478 11.9487L28.395 19.9698C27.8816 23.0145 27.6248 24.5367 26.4902 25.2006C25.3554 25.8644 23.8814 25.3546 20.9334 24.3348L11.9153 21.2156C6.40223 19.3087 3.64568 18.3552 3.54201 16.4844C3.43832 14.6135 6.07301 13.3683 11.3424 10.8778Z" fill="white" stroke="white" stroke-width="2.125" stroke-linecap="round" stroke-linejoin="round"/>
<path d="M13.4557 21.959V25.1145C13.4557 28.4771 13.4557 30.1584 14.4618 30.4265C15.4679 30.6946 16.5274 29.2958 18.6465 26.4978L19.8307 24.7923" fill="white"/>
<path d="M13.4557 21.959V25.1145C13.4557 28.4771 13.4557 30.1584 14.4618 30.4265C15.4679 30.6946 16.5274 29.2958 18.6465 26.4978L19.8307 24.7923" stroke="white" stroke-width="2.125" stroke-linecap="round" stroke-linejoin="round"/>
<path d="M13.4557 21.25L24.0807 10.625" stroke="#262626" stroke-width="2.125" stroke-linecap="round" stroke-linejoin="round"/>
</svg>
