<svg width="22" height="22" viewBox="0 0 22 22" fill="none" xmlns="http://www.w3.org/2000/svg">
<path d="M6.41663 9.1665V15.5832" stroke="#646464" stroke-width="1.375" stroke-linecap="round" stroke-linejoin="round"/>
<path d="M10.0834 11.9165V15.5832M10.0834 11.9165C10.0834 10.3977 11.3145 9.1665 12.8334 9.1665C14.3522 9.1665 15.5834 10.3977 15.5834 11.9165V15.5832M10.0834 11.9165V9.1665" stroke="#646464" stroke-width="1.375" stroke-linecap="round" stroke-linejoin="round"/>
<path d="M6.42476 6.4165H6.41577" stroke="#646464" stroke-width="1.83333" stroke-linecap="round" stroke-linejoin="round"/>
<path d="M2.29163 10.9998C2.29163 6.89469 2.29163 4.84212 3.56693 3.56681C4.84224 2.2915 6.89481 2.2915 11 2.2915C15.1051 2.2915 17.1577 2.2915 18.433 3.56681C19.7083 4.84212 19.7083 6.89469 19.7083 10.9998C19.7083 15.1049 19.7083 17.1575 18.433 18.4329C17.1577 19.7082 15.1051 19.7082 11 19.7082C6.89481 19.7082 4.84224 19.7082 3.56693 18.4329C2.29163 17.1575 2.29163 15.1049 2.29163 10.9998Z" stroke="#646464" stroke-width="1.375" stroke-linejoin="round"/>
</svg>
