<svg width="26" height="26" viewBox="0 0 26 26" fill="none" xmlns="http://www.w3.org/2000/svg">
<path d="M9.21084 4.61631L8.67396 3.40833C8.32292 2.61851 8.1474 2.22357 7.88491 1.92135C7.55594 1.54259 7.12712 1.26392 6.6474 1.11713C6.26462 1 5.83244 1 4.96811 1C3.70371 1 3.07151 1 2.5408 1.24305C1.91566 1.52936 1.35108 2.15104 1.12614 2.8008C0.935175 3.35239 0.989882 3.91924 1.09927 5.05293C2.26371 17.1202 8.87959 23.7361 20.9468 24.9006C22.0806 25.0099 22.6475 25.0646 23.199 24.8737C23.8488 24.6487 24.4704 24.0842 24.7568 23.459C24.9998 22.9283 24.9998 22.2961 24.9998 21.0317C24.9998 20.1674 24.9998 19.7353 24.8827 19.3525C24.7359 18.8727 24.4572 18.4439 24.0784 18.1149C23.7763 17.8525 23.3814 17.6769 22.5915 17.3258L21.3835 16.789C20.5282 16.4089 20.1004 16.2187 19.6659 16.1774C19.2499 16.1378 18.8306 16.1962 18.4412 16.3478C18.0344 16.5062 17.675 16.8058 16.9558 17.4051C16.24 18.0015 15.8822 18.2998 15.4448 18.4595C15.0571 18.6013 14.5446 18.6537 14.1363 18.5935C13.6756 18.5257 13.323 18.3371 12.6175 17.9602C10.4228 16.7873 9.21254 15.577 8.03966 13.3823C7.66268 12.6769 7.4742 12.3242 7.40632 11.8635C7.34615 11.4553 7.3986 10.9427 7.54023 10.555C7.69999 10.1177 7.99824 9.75981 8.59475 9.044C9.19399 8.32491 9.49362 7.96536 9.65203 7.55855C9.80363 7.16925 9.86199 6.74987 9.82243 6.33397C9.78108 5.89936 9.591 5.47168 9.21084 4.61631Z" fill="white" stroke="white" stroke-width="2" stroke-linecap="round"/>
</svg>
