<svg width="26" height="26" viewBox="0 0 26 26" fill="none" xmlns="http://www.w3.org/2000/svg">
<path d="M12.7847 7.03045L14.3941 5.42108C16.2062 3.60897 18.5786 2.85732 21.0893 2.73449C22.066 2.68671 22.5542 2.66283 22.9457 3.05439C23.3374 3.44594 23.3134 3.93422 23.2656 4.9108C23.1428 7.42154 22.3912 9.79396 20.5791 11.606L18.9697 13.2154C17.6443 14.5408 17.2676 14.9177 17.5458 16.3552C17.8204 17.4534 18.0861 18.5168 17.2876 19.3153C16.319 20.284 15.4354 20.284 14.4668 19.3153L6.68477 11.5333C5.71618 10.5647 5.71614 9.68116 6.68477 8.71254C7.48329 7.91401 8.54671 8.17981 9.64486 8.45438C11.0825 8.73262 11.4594 8.3558 12.7847 7.03045Z" stroke="#262626" stroke-width="1.625" stroke-linejoin="round"/>
<path d="M18.4122 7.5835H18.4212" stroke="#262626" stroke-width="2.16667" stroke-linecap="round" stroke-linejoin="round"/>
<path d="M2.70831 23.2917L8.12498 17.875" stroke="#262626" stroke-width="1.625" stroke-linecap="round"/>
<path d="M9.20831 23.2917L11.375 21.125" stroke="#262626" stroke-width="1.625" stroke-linecap="round"/>
<path d="M2.70831 16.7917L4.87498 14.625" stroke="#262626" stroke-width="1.625" stroke-linecap="round"/>
</svg>
