<svg width="32" height="32" viewBox="0 0 32 32" fill="none" xmlns="http://www.w3.org/2000/svg">
<path d="M15.7351 8.65282L17.7159 6.67206C19.9462 4.44177 22.866 3.51666 25.9562 3.36549C27.1582 3.30669 27.7591 3.27729 28.241 3.75921C28.723 4.24111 28.6935 4.84207 28.6347 6.04402C28.4835 9.13417 27.5584 12.0541 25.3282 14.2843L23.3474 16.2651C21.7162 17.8963 21.2524 18.3602 21.5948 20.1295C21.9328 21.4811 22.2599 22.7899 21.2771 23.7727C20.085 24.9648 18.9975 24.9648 17.8054 23.7727L8.22748 14.1948C7.03536 13.0027 7.03532 11.9152 8.22748 10.7231C9.21027 9.74029 10.5191 10.0674 11.8707 10.4054C13.64 10.7478 14.1039 10.284 15.7351 8.65282Z" fill="white" stroke="white" stroke-width="2" stroke-linejoin="round"/>
<path d="M22.6613 9.3335H22.6733" stroke="#262626" stroke-width="2.66667" stroke-linecap="round" stroke-linejoin="round"/>
<path d="M3.3335 28.6667L10.0002 22" stroke="white" stroke-width="2" stroke-linecap="round"/>
<path d="M11.3334 28.6667L14 26" stroke="white" stroke-width="2" stroke-linecap="round"/>
<path d="M3.3335 20.6667L6.00016 18" stroke="white" stroke-width="2" stroke-linecap="round"/>
</svg>
