<svg width="20" height="20" viewBox="0 0 20 20" fill="none" xmlns="http://www.w3.org/2000/svg">
<path d="M12.5 1.66663L12.9489 3.6596C13.3298 5.35008 14.6498 6.67022 16.3403 7.05102L18.3333 7.49996L16.3403 7.9489C14.6498 8.3297 13.3298 9.64979 12.9489 11.3403L12.5 13.3333L12.0511 11.3403C11.6703 9.64979 10.3502 8.3297 8.65967 7.9489L6.66667 7.49996L8.65967 7.05102C10.3501 6.67022 11.6703 5.35008 12.0511 3.65961L12.5 1.66663Z" stroke="white" stroke-width="1.25" stroke-linejoin="round"/>
<path d="M5.83334 10L6.15401 11.4236C6.42601 12.631 7.36896 13.574 8.57642 13.846L10 14.1667L8.57642 14.4873C7.36896 14.7593 6.42601 15.7023 6.15401 16.9098L5.83334 18.3333L5.51266 16.9098C5.24066 15.7023 4.29771 14.7593 3.09023 14.4873L1.66667 14.1667L3.09023 13.846C4.29771 13.574 5.24066 12.6311 5.51266 11.4236L5.83334 10Z" stroke="white" stroke-width="1.25" stroke-linejoin="round"/>
</svg>
