<svg width="20" height="20" viewBox="0 0 20 20" fill="none" xmlns="http://www.w3.org/2000/svg">
<path d="M1.66669 11.6668C1.66669 9.32608 1.66669 8.15567 2.22845 7.31493C2.47165 6.95096 2.78415 6.63846 3.14812 6.39526C3.98886 5.8335 5.15925 5.8335 7.50002 5.8335H12.5C14.8408 5.8335 16.0112 5.8335 16.8519 6.39526C17.2159 6.63846 17.5284 6.95096 17.7716 7.31493C18.3334 8.15567 18.3334 9.32608 18.3334 11.6668C18.3334 14.0076 18.3334 15.178 17.7716 16.0187C17.5284 16.3827 17.2159 16.6952 16.8519 16.9384C16.0112 17.5002 14.8408 17.5002 12.5 17.5002H7.50002C5.15925 17.5002 3.98886 17.5002 3.14812 16.9384C2.78415 16.6952 2.47165 16.3827 2.22845 16.0187C1.66669 15.178 1.66669 14.0076 1.66669 11.6668Z" stroke="white" stroke-width="1.25" stroke-linecap="round" stroke-linejoin="round"/>
<path d="M13.3334 5.83333C13.3334 4.26198 13.3334 3.47631 12.8452 2.98816C12.357 2.5 11.5714 2.5 10 2.5C8.42869 2.5 7.643 2.5 7.15485 2.98816C6.66669 3.47631 6.66669 4.26198 6.66669 5.83333" stroke="white" stroke-width="1.25" stroke-linecap="round" stroke-linejoin="round"/>
<path d="M5 9.1665L5.54331 9.33484C8.40425 10.2215 11.5957 10.2215 14.4567 9.33484L15 9.1665M10 9.99984V11.6665" stroke="white" stroke-width="1.25" stroke-linecap="round" stroke-linejoin="round"/>
</svg>
